<svg xmlns="http://www.w3.org/2000/svg" width="1360" height="1200" style="background:#fff"><rect width="100%" height="100%" fill="#fff"/><g transform="translate(10,10)"><svg width="120" height="80" viewBox="0 0 120 80"><rect width="4" height="80" x="0" y="0" fill="#6b5b3e"/><polygon fill="#fff" points="4 0 62 0 62 80 4 80"/><polygon fill="#0b3f9e" points="62 0 120 0 98 40 120 80 62 80"/><rect width="116" height="80" x="4" y="0" fill="none" stroke="#999" stroke-width="1"/></svg><text x="0" y="96" font-family="Arial" font-size="12">A</text></g><g transform="translate(180,10)"><svg width="120" height="80" viewBox="0 0 120 80"><rect width="4" height="80" x="0" y="0" fill="#6b5b3e"/><polygon fill="#c8102e" points="4 0 62 0 62 80 4 80"/><polygon fill="#c8102e" points="62 0 120 0 98 40 120 80 62 80"/><rect width="116" height="80" x="4" y="0" fill="none" stroke="#999" stroke-width="1"/></svg><text x="0" y="96" font-family="Arial" font-size="12">B</text></g><g transform="translate(350,10)"><svg width="120" height="80" viewBox="0 0 120 80"><rect width="4" height="80" x="0" y="0" fill="#6b5b3e"/><rect width="116" height="16.5" x="4" y="0" fill="#0b3f9e"/><rect width="116" height="16.5" x="4" y="16" fill="#fff"/><rect width="116" height="16.5" x="4" y="32" fill="#c8102e"/><rect width="116" height="16.5" x="4" y="48" fill="#fff"/><rect width="116" height="16.5" x="4" y="64" fill="#0b3f9e"/><rect width="116" height="80" x="4" y="0" fill="none" stroke="#999" stroke-width="1"/></svg><text x="0" y="96" font-family="Arial" font-size="12">C</text></g><g transform="translate(520,10)"><svg width="120" height="80" viewBox="0 0 120 80"><rect width="4" height="80" x="0" y="0" fill="#6b5b3e"/><rect width="116" height="20.5" x="4" y="0" fill="#ffd100"/><rect width="116" height="20.5" x="4" y="20" fill="#0b3f9e"/><rect width="116" height="20.5" x="4" y="40" fill="#0b3f9e"/><rect width="116" height="20.5" x="4" y="60" fill="#ffd100"/><rect width="116" height="80" x="4" y="0" fill="none" stroke="#999" stroke-width="1"/></svg><text x="0" y="96" font-family="Arial" font-size="12">D</text></g><g transform="translate(690,10)"><svg width="120" height="80" viewBox="0 0 120 80"><rect width="4" height="80" x="0" y="0" fill="#6b5b3e"/><rect width="116" height="40.5" x="4" y="0" fill="#0b3f9e"/><rect width="116" height="40.5" x="4" y="40" fill="#c8102e"/><rect width="116" height="80" x="4" y="0" fill="none" stroke="#999" stroke-width="1"/></svg><text x="0" y="96" font-family="Arial" font-size="12">E</text></g><g transform="translate(860,10)"><svg width="120" height="80" viewBox="0 0 120 80"><rect width="4" height="80" x="0" y="0" fill="#6b5b3e"/><rect width="116" height="80" x="4" y="0" fill="#fff"/><polygon fill="#c8102e" points="62 8 92 40 62 72 32 40"/><rect width="116" height="80" x="4" y="0" fill="none" stroke="#999" stroke-width="1"/></svg><text x="0" y="96" font-family="Arial" font-size="12">F</text></g><g transform="translate(1030,10)"><svg width="120" height="80" viewBox="0 0 120 80"><rect width="4" height="80" x="0" y="0" fill="#6b5b3e"/><rect width="19.833" height="80" x="4" y="0" fill="#ffd100"/><rect width="19.833" height="80" x="23.333" y="0" fill="#0b3f9e"/><rect width="19.833" height="80" x="42.667" y="0" fill="#ffd100"/><rect width="19.833" height="80" x="62" y="0" fill="#0b3f9e"/><rect width="19.833" height="80" x="81.333" y="0" fill="#ffd100"/><rect width="19.833" height="80" x="100.667" y="0" fill="#0b3f9e"/><rect width="116" height="80" x="4" y="0" fill="none" stroke="#999" stroke-width="1"/></svg><text x="0" y="96" font-family="Arial" font-size="12">G</text></g><g transform="translate(1200,10)"><svg width="120" height="80" viewBox="0 0 120 80"><rect width="4" height="80" x="0" y="0" fill="#6b5b3e"/><rect width="58" height="80" x="4" y="0" fill="#fff"/><rect width="58" height="80" x="62" y="0" fill="#c8102e"/><rect width="116" height="80" x="4" y="0" fill="none" stroke="#999" stroke-width="1"/></svg><text x="0" y="96" font-family="Arial" font-size="12">H</text></g><g transform="translate(10,160)"><svg width="120" height="80" viewBox="0 0 120 80"><rect width="4" height="80" x="0" y="0" fill="#6b5b3e"/><rect width="116" height="80" x="4" y="0" fill="#ffd100"/><circle cx="62" cy="40" r="18" fill="#111"/><rect width="116" height="80" x="4" y="0" fill="none" stroke="#999" stroke-width="1"/></svg><text x="0" y="96" font-family="Arial" font-size="12">I</text></g><g transform="translate(180,160)"><svg width="120" height="80" viewBox="0 0 120 80"><rect width="4" height="80" x="0" y="0" fill="#6b5b3e"/><rect width="116" height="27.167" x="4" y="0" fill="#0b3f9e"/><rect width="116" height="27.167" x="4" y="26.667" fill="#fff"/><rect width="116" height="27.167" x="4" y="53.333" fill="#0b3f9e"/><rect width="116" height="80" x="4" y="0" fill="none" stroke="#999" stroke-width="1"/></svg><text x="0" y="96" font-family="Arial" font-size="12">J</text></g><g transform="translate(350,160)"><svg width="120" height="80" viewBox="0 0 120 80"><rect width="4" height="80" x="0" y="0" fill="#6b5b3e"/><rect width="58" height="80" x="4" y="0" fill="#ffd100"/><rect width="58" height="80" x="62" y="0" fill="#0b3f9e"/><rect width="116" height="80" x="4" y="0" fill="none" stroke="#999" stroke-width="1"/></svg><text x="0" y="96" font-family="Arial" font-size="12">K</text></g><g transform="translate(520,160)"><svg width="120" height="80" viewBox="0 0 120 80"><rect width="4" height="80" x="0" y="0" fill="#6b5b3e"/><rect width="58" height="40" x="4" y="0" fill="#ffd100"/><rect width="58" height="40" x="62" y="0" fill="#111"/><rect width="58" height="40" x="4" y="40" fill="#111"/><rect width="58" height="40" x="62" y="40" fill="#ffd100"/><rect width="116" height="80" x="4" y="0" fill="none" stroke="#999" stroke-width="1"/></svg><text x="0" y="96" font-family="Arial" font-size="12">L</text></g><g transform="translate(690,160)"><svg width="120" height="80" viewBox="0 0 120 80"><rect width="4" height="80" x="0" y="0" fill="#6b5b3e"/><rect width="116" height="80" x="4" y="0" fill="#0b3f9e"/><path stroke="#fff" stroke-width="12" d="M4,0 L120,80 M120,0 L4,80"/><rect width="116" height="80" x="4" y="0" fill="none" stroke="#999" stroke-width="1"/></svg><text x="0" y="96" font-family="Arial" font-size="12">M</text></g><g transform="translate(860,160)"><svg width="120" height="80" viewBox="0 0 120 80"><rect width="4" height="80" x="0" y="0" fill="#6b5b3e"/><rect width="29.5" height="20.5" x="4" y="0" fill="#0b3f9e"/><rect width="29.5" height="20.5" x="4" y="20" fill="#fff"/><rect width="29.5" height="20.5" x="4" y="40" fill="#0b3f9e"/><rect width="29.5" height="20.5" x="4" y="60" fill="#fff"/><rect width="29.5" height="20.5" x="33" y="0" fill="#fff"/><rect width="29.5" height="20.5" x="33" y="20" fill="#0b3f9e"/><rect width="29.5" height="20.5" x="33" y="40" fill="#fff"/><rect width="29.5" height="20.5" x="33" y="60" fill="#0b3f9e"/><rect width="29.5" height="20.5" x="62" y="0" fill="#0b3f9e"/><rect width="29.5" height="20.5" x="62" y="20" fill="#fff"/><rect width="29.5" height="20.5" x="62" y="40" fill="#0b3f9e"/><rect width="29.5" height="20.5" x="62" y="60" fill="#fff"/><rect width="29.5" height="20.5" x="91" y="0" fill="#fff"/><rect width="29.5" height="20.5" x="91" y="20" fill="#0b3f9e"/><rect width="29.5" height="20.5" x="91" y="40" fill="#fff"/><rect width="29.5" height="20.5" x="91" y="60" fill="#0b3f9e"/><rect width="116" height="80" x="4" y="0" fill="none" stroke="#999" stroke-width="1"/></svg><text x="0" y="96" font-family="Arial" font-size="12">N</text></g><g transform="translate(1030,160)"><svg width="120" height="80" viewBox="0 0 120 80"><rect width="4" height="80" x="0" y="0" fill="#6b5b3e"/><polygon fill="#ffd100" points="4 0 120 0 4 80"/><polygon fill="#c8102e" points="120 0 120 80 4 80"/><rect width="116" height="80" x="4" y="0" fill="none" stroke="#999" stroke-width="1"/></svg><text x="0" y="96" font-family="Arial" font-size="12">O</text></g><g transform="translate(1200,160)"><svg width="120" height="80" viewBox="0 0 120 80"><rect width="4" height="80" x="0" y="0" fill="#6b5b3e"/><rect width="116" height="80" x="4" y="0" fill="#0b3f9e"/><rect width="77.72" height="53.6" x="23.14" y="13.2" fill="#fff"/><rect width="116" height="80" x="4" y="0" fill="none" stroke="#999" stroke-width="1"/></svg><text x="0" y="96" font-family="Arial" font-size="12">P</text></g><g transform="translate(10,310)"><svg width="120" height="80" viewBox="0 0 120 80"><rect width="4" height="80" x="0" y="0" fill="#6b5b3e"/><rect width="116" height="80" x="4" y="0" fill="#ffd100"/><rect width="116" height="80" x="4" y="0" fill="none" stroke="#999" stroke-width="1"/></svg><text x="0" y="96" font-family="Arial" font-size="12">Q</text></g><g transform="translate(180,310)"><svg width="120" height="80" viewBox="0 0 120 80"><rect width="4" height="80" x="0" y="0" fill="#6b5b3e"/><rect width="116" height="80" x="4" y="0" fill="#c8102e"/><path stroke="#ffd100" stroke-width="12" d="M62,0 V80 M4,40 H120"/><rect width="116" height="80" x="4" y="0" fill="none" stroke="#999" stroke-width="1"/></svg><text x="0" y="96" font-family="Arial" font-size="12">R</text></g><g transform="translate(350,310)"><svg width="120" height="80" viewBox="0 0 120 80"><rect width="4" height="80" x="0" y="0" fill="#6b5b3e"/><rect width="116" height="80" x="4" y="0" fill="#fff"/><rect width="77.72" height="53.6" x="23.14" y="13.2" fill="#0b3f9e"/><rect width="116" height="80" x="4" y="0" fill="none" stroke="#999" stroke-width="1"/></svg><text x="0" y="96" font-family="Arial" font-size="12">S</text></g><g transform="translate(520,310)"><svg width="120" height="80" viewBox="0 0 120 80"><rect width="4" height="80" x="0" y="0" fill="#6b5b3e"/><rect width="39.167" height="80" x="4" y="0" fill="#c8102e"/><rect width="39.167" height="80" x="42.667" y="0" fill="#fff"/><rect width="39.167" height="80" x="81.333" y="0" fill="#0b3f9e"/><rect width="116" height="80" x="4" y="0" fill="none" stroke="#999" stroke-width="1"/></svg><text x="0" y="96" font-family="Arial" font-size="12">T</text></g><g transform="translate(690,310)"><svg width="120" height="80" viewBox="0 0 120 80"><rect width="4" height="80" x="0" y="0" fill="#6b5b3e"/><rect width="58" height="40" x="4" y="0" fill="#c8102e"/><rect width="58" height="40" x="62" y="0" fill="#fff"/><rect width="58" height="40" x="4" y="40" fill="#fff"/><rect width="58" height="40" x="62" y="40" fill="#c8102e"/><rect width="116" height="80" x="4" y="0" fill="none" stroke="#999" stroke-width="1"/></svg><text x="0" y="96" font-family="Arial" font-size="12">U</text></g><g transform="translate(860,310)"><svg width="120" height="80" viewBox="0 0 120 80"><rect width="4" height="80" x="0" y="0" fill="#6b5b3e"/><rect width="116" height="80" x="4" y="0" fill="#fff"/><path stroke="#c8102e" stroke-width="12" d="M4,0 L120,80 M120,0 L4,80"/><rect width="116" height="80" x="4" y="0" fill="none" stroke="#999" stroke-width="1"/></svg><text x="0" y="96" font-family="Arial" font-size="12">V</text></g><g transform="translate(1030,310)"><svg width="120" height="80" viewBox="0 0 120 80"><rect width="4" height="80" x="0" y="0" fill="#6b5b3e"/><rect width="116" height="80" x="4" y="0" fill="#0b3f9e"/><rect width="76" height="52" x="24" y="14" fill="#fff"/><rect width="36" height="24" x="44" y="28" fill="#c8102e"/><rect width="116" height="80" x="4" y="0" fill="none" stroke="#999" stroke-width="1"/></svg><text x="0" y="96" font-family="Arial" font-size="12">W</text></g><g transform="translate(1200,310)"><svg width="120" height="80" viewBox="0 0 120 80"><rect width="4" height="80" x="0" y="0" fill="#6b5b3e"/><rect width="116" height="80" x="4" y="0" fill="#fff"/><path stroke="#0b3f9e" stroke-width="12" d="M62,0 V80 M4,40 H120"/><rect width="116" height="80" x="4" y="0" fill="none" stroke="#999" stroke-width="1"/></svg><text x="0" y="96" font-family="Arial" font-size="12">X</text></g><g transform="translate(10,460)"><svg width="120" height="80" viewBox="0 0 120 80"><rect width="4" height="80" x="0" y="0" fill="#6b5b3e"/><rect width="116" height="80" x="4" y="0" fill="#ffd100"/><path stroke="#c8102e" stroke-width="10" d="M-16,80 L24,0"/><path stroke="#c8102e" stroke-width="10" d="M14,80 L54,0"/><path stroke="#c8102e" stroke-width="10" d="M44,80 L84,0"/><path stroke="#c8102e" stroke-width="10" d="M74,80 L114,0"/><path stroke="#c8102e" stroke-width="10" d="M104,80 L144,0"/><rect width="116" height="80" x="4" y="0" fill="none" stroke="#999" stroke-width="1"/></svg><text x="0" y="96" font-family="Arial" font-size="12">Y</text></g><g transform="translate(180,460)"><svg width="120" height="80" viewBox="0 0 120 80"><rect width="4" height="80" x="0" y="0" fill="#6b5b3e"/><polygon fill="#ffd100" points="4 0 120 0 62 40"/><polygon fill="#111" points="4 0 4 80 62 40"/><polygon fill="#c8102e" points="4 80 120 80 62 40"/><polygon fill="#0b3f9e" points="120 0 120 80 62 40"/><rect width="116" height="80" x="4" y="0" fill="none" stroke="#999" stroke-width="1"/></svg><text x="0" y="96" font-family="Arial" font-size="12">Z</text></g><g transform="translate(350,460)"><svg width="120" height="120" viewBox="0 0 120 120"><rect width="4" height="114" x="58" y="6" fill="#555"/><circle cx="60" cy="40" r="12" fill="#111"/></svg><text x="0" y="136" font-family="Arial" font-size="12">ball1</text></g><g transform="translate(520,460)"><svg width="120" height="120" viewBox="0 0 120 120"><rect width="4" height="114" x="58" y="6" fill="#555"/><circle cx="60" cy="30" r="12" fill="#111"/><circle cx="60" cy="64" r="12" fill="#111"/></svg><text x="0" y="136" font-family="Arial" font-size="12">ball2</text></g><g transform="translate(690,460)"><svg width="120" height="120" viewBox="0 0 120 120"><rect width="4" height="114" x="58" y="6" fill="#555"/><circle cx="60" cy="24" r="12" fill="#111"/><circle cx="60" cy="54" r="12" fill="#111"/><circle cx="60" cy="84" r="12" fill="#111"/></svg><text x="0" y="136" font-family="Arial" font-size="12">ball3</text></g><g transform="translate(860,460)"><svg width="120" height="120" viewBox="0 0 120 120"><rect width="4" height="114" x="58" y="6" fill="#555"/><circle cx="60" cy="24" r="12" fill="#111"/><polygon fill="#111" points="60 43 73 56 60 69 47 56"/><circle cx="60" cy="88" r="12" fill="#111"/></svg><text x="0" y="136" font-family="Arial" font-size="12">ram</text></g><g transform="translate(1030,460)"><svg width="120" height="120" viewBox="0 0 120 120"><rect width="4" height="114" x="58" y="6" fill="#555"/><rect width="80" height="4" x="20" y="54" fill="#555"/><circle cx="60" cy="22" r="10" fill="#111"/><polygon fill="#111" points="60 41 71 52 60 63 49 52"/><circle cx="60" cy="82" r="10" fill="#111"/><circle cx="22" cy="38" r="8" fill="#111"/><circle cx="22" cy="60" r="8" fill="#111"/><polygon fill="#111" points="98 29 107 38 98 47 89 38"/><polygon fill="#111" points="98 51 107 60 98 69 89 60"/></svg><text x="0" y="136" font-family="Arial" font-size="12">ramObst</text></g><g transform="translate(1200,460)"><svg width="120" height="120" viewBox="0 0 120 120"><rect width="4" height="114" x="58" y="6" fill="#555"/><rect width="20" height="40" x="50" y="36" fill="#111" rx="3"/></svg><text x="0" y="136" font-family="Arial" font-size="12">cyl</text></g><g transform="translate(10,610)"><svg width="120" height="120" viewBox="0 0 120 120"><rect width="4" height="114" x="58" y="6" fill="#555"/><polygon fill="#111" points="60 32 78 50 60 68 42 50"/></svg><text x="0" y="136" font-family="Arial" font-size="12">diamond</text></g><g transform="translate(180,610)"><svg width="120" height="120" viewBox="0 0 120 120"><rect width="4" height="114" x="58" y="6" fill="#555"/><polygon fill="#111" points="47 27 73 27 60 53"/><polygon fill="#111" points="60 53 73 79 47 79"/></svg><text x="0" y="136" font-family="Arial" font-size="12">hourglass</text></g><g transform="translate(350,610)"><svg width="120" height="120" viewBox="0 0 120 120"><rect width="4" height="114" x="58" y="6" fill="#555"/><rect width="80" height="4" x="20" y="48" fill="#555"/><polygon fill="#111" points="47 17 73 17 60 43"/><polygon fill="#111" points="60 43 73 69 47 69"/><polygon fill="#111" points="96 60 106 80 86 80"/></svg><text x="0" y="136" font-family="Arial" font-size="12">hourglassCone</text></g><g transform="translate(520,610)"><svg width="120" height="120" viewBox="0 0 120 120"><rect width="4" height="114" x="58" y="6" fill="#555"/><polygon fill="#111" points="44 34 76 34 60 66"/></svg><text x="0" y="136" font-family="Arial" font-size="12">coneDown</text></g><g transform="translate(690,610)"><svg width="120" height="120" viewBox="0 0 120 120"><rect width="4" height="114" x="58" y="6" fill="#555"/><rect width="68" height="4" x="26" y="58" fill="#555"/><circle cx="60" cy="28" r="12" fill="#111"/><circle cx="26" cy="60" r="12" fill="#111"/><circle cx="94" cy="60" r="12" fill="#111"/></svg><text x="0" y="136" font-family="Arial" font-size="12">tri3</text></g><g transform="translate(860,610)"><svg width="120" height="120" viewBox="0 0 120 120"><rect width="4" height="114" x="58" y="6" fill="#555"/><rect width="42" height="34" x="62" y="14" fill="#e0791b" stroke="#333"/><circle cx="60" cy="74" r="12" fill="#111"/></svg><text x="0" y="136" font-family="Arial" font-size="12">flagBall</text></g><g transform="translate(1030,610)"><svg width="120" height="120" viewBox="0 0 120 120"><rect width="4" height="114" x="58" y="6" fill="#555"/><polygon fill="#111" points="60 34 76 66 44 66"/></svg><text x="0" y="136" font-family="Arial" font-size="12">coneUpNet</text></g><g transform="translate(1200,610)"><svg width="120" height="120" viewBox="0 0 120 120"><rect width="4" height="114" x="58" y="6" fill="#555"/><polygon fill="#c8102e" points="62 14 110 34 62 54"/></svg><text x="0" y="136" font-family="Arial" font-size="12">redPennant</text></g><g transform="translate(10,760)"><svg width="120" height="120" viewBox="0 0 120 120"><rect width="4" height="114" x="58" y="6" fill="#555"/><circle cx="60" cy="36" r="16" fill="#111"/></svg><text x="0" y="136" font-family="Arial" font-size="12">blackBall</text></g><g transform="translate(180,760)"><svg width="120" height="120" viewBox="0 0 120 120"><rect width="120" height="120" fill="#101820"/><circle cx="60" cy="38" r="15" fill="#fff"/><circle cx="60" cy="82" r="15" fill="#25c04a"/></svg><text x="0" y="136" font-family="Arial" font-size="12">whiteGreen</text></g><g transform="translate(350,760)"><svg width="120" height="120" viewBox="0 0 120 120"><rect width="120" height="120" fill="#101820"/><circle cx="90" cy="60" r="16" fill="#25c04a"/><circle cx="30" cy="60" r="16" fill="#e53935"/><text x="60" y="108" fill="#ccc" font-size="12" text-anchor="middle">כניסה</text></svg><text x="0" y="136" font-family="Arial" font-size="12">entrance</text></g><g transform="translate(520,760)"><svg width="120" height="120" viewBox="0 0 120 120"><rect width="120" height="120" fill="#101820"/><circle cx="40" cy="60" r="14" fill="#e53935"/><circle cx="80" cy="60" r="14" fill="#25c04a"/></svg><text x="0" y="136" font-family="Arial" font-size="12">bow</text></g><g transform="translate(690,760)"><svg width="120" height="120" viewBox="0 0 120 120"><rect width="120" height="120" fill="#101820"/><circle cx="60" cy="60" r="14" fill="#fff"/></svg><text x="0" y="136" font-family="Arial" font-size="12">stern</text></g><g transform="translate(860,760)"><svg width="120" height="120" viewBox="0 0 120 120"><rect width="120" height="120" fill="#101820"/><circle cx="60" cy="60" r="14" fill="#e53935"/></svg><text x="0" y="136" font-family="Arial" font-size="12">redOnly</text></g><g transform="translate(1030,760)"><svg width="120" height="120" viewBox="0 0 120 120"><rect width="120" height="120" fill="#101820"/><circle cx="60" cy="60" r="14" fill="#25c04a"/></svg><text x="0" y="136" font-family="Arial" font-size="12">greenOnly</text></g><g transform="translate(1200,760)"><svg width="120" height="80" viewBox="0 0 120 80"><rect width="4" height="80" x="0" y="0" fill="#6b5b3e"/><rect width="116" height="80" x="4" y="0" fill="#c8102e"/><path stroke="#fff" stroke-width="14" d="M120,0 L4,80"/></svg><text x="0" y="96" font-family="Arial" font-size="12">diverFlag</text></g><g transform="translate(10,910)"><svg width="120" height="60" viewBox="0 0 120 60"><circle cx="15" cy="30" r="7" fill="#111"/><text x="30" y="55" fill="#666" font-size="11" text-anchor="middle">קצרה אחת</text></svg><text x="0" y="76" font-family="Arial" font-size="12">s1</text></g><g transform="translate(180,910)"><svg width="120" height="60" viewBox="0 0 120 60"><circle cx="15" cy="30" r="7" fill="#111"/><circle cx="35" cy="30" r="7" fill="#111"/><text x="30" y="55" fill="#666" font-size="11" text-anchor="middle">שתי קצרות</text></svg><text x="0" y="76" font-family="Arial" font-size="12">s2</text></g><g transform="translate(350,910)"><svg width="120" height="60" viewBox="0 0 120 60"><circle cx="15" cy="30" r="7" fill="#111"/><circle cx="35" cy="30" r="7" fill="#111"/><circle cx="55" cy="30" r="7" fill="#111"/><text x="34" y="55" fill="#666" font-size="11" text-anchor="middle">שלוש קצרות</text></svg><text x="0" y="76" font-family="Arial" font-size="12">s3</text></g><g transform="translate(520,910)"><svg width="120" height="60" viewBox="0 0 120 60"><circle cx="15" cy="30" r="7" fill="#111"/><circle cx="35" cy="30" r="7" fill="#111"/><circle cx="55" cy="30" r="7" fill="#111"/><circle cx="75" cy="30" r="7" fill="#111"/><circle cx="95" cy="30" r="7" fill="#111"/><text x="54" y="55" fill="#666" font-size="11" text-anchor="middle">חמש קצרות (או יותר)</text></svg><text x="0" y="76" font-family="Arial" font-size="12">s5</text></g><g transform="translate(690,910)"><svg width="150" height="31.469" viewBox="0 0 286 60"><circle cx="15" cy="30" r="7" fill="#111"/><circle cx="35" cy="30" r="7" fill="#111"/><circle cx="55" cy="30" r="7" fill="#111"/><rect width="34" height="12" x="80" y="24" fill="#111" rx="6"/><rect width="34" height="12" x="122" y="24" fill="#111" rx="6"/><rect width="34" height="12" x="164" y="24" fill="#111" rx="6"/><circle cx="225" cy="30" r="7" fill="#111"/><circle cx="245" cy="30" r="7" fill="#111"/><circle cx="265" cy="30" r="7" fill="#111"/><text x="139" y="55" fill="#666" font-size="11" text-anchor="middle">3 קצרות · 3 ארוכות · 3 קצרות</text></svg><text x="0" y="47.469" font-family="Arial" font-size="12">sos</text></g><g transform="translate(860,910)"><svg width="120" height="60" viewBox="0 0 120 60"><rect width="34" height="12" x="8" y="24" fill="#111" rx="6"/><text x="30" y="55" fill="#666" font-size="11" text-anchor="middle">ארוכה אחת</text></svg><text x="0" y="76" font-family="Arial" font-size="12">fog1</text></g><g transform="translate(1030,910)"><svg width="120" height="60" viewBox="0 0 120 60"><rect width="34" height="12" x="8" y="24" fill="#111" rx="6"/><rect width="34" height="12" x="50" y="24" fill="#111" rx="6"/><text x="46" y="55" fill="#666" font-size="11" text-anchor="middle">שתי ארוכות</text></svg><text x="0" y="76" font-family="Arial" font-size="12">fog2</text></g><g transform="translate(1200,910)"><svg width="120" height="60" viewBox="0 0 120 60"><rect width="34" height="12" x="8" y="24" fill="#111" rx="6"/><circle cx="57" cy="30" r="7" fill="#111"/><circle cx="77" cy="30" r="7" fill="#111"/><text x="45" y="55" fill="#666" font-size="11" text-anchor="middle">ארוכה + 2 קצרות</text></svg><text x="0" y="76" font-family="Arial" font-size="12">fog3</text></g><g transform="translate(10,1060)"><svg width="120" height="60" viewBox="0 0 120 60"><rect width="34" height="12" x="8" y="24" fill="#111" rx="6"/><circle cx="57" cy="30" r="7" fill="#111"/><circle cx="77" cy="30" r="7" fill="#111"/><circle cx="97" cy="30" r="7" fill="#111"/><text x="55" y="55" fill="#666" font-size="11" text-anchor="middle">ארוכה + 3 קצרות</text></svg><text x="0" y="76" font-family="Arial" font-size="12">fog4</text></g><g transform="translate(180,1060)"><svg width="120" height="60" viewBox="0 0 120 60"><rect width="34" height="12" x="8" y="24" fill="#111" rx="6"/><rect width="34" height="12" x="50" y="24" fill="#111" rx="6"/><circle cx="99" cy="30" r="7" fill="#111"/><text x="56" y="55" fill="#666" font-size="11" text-anchor="middle">2 ארוכות + קצרה</text></svg><text x="0" y="76" font-family="Arial" font-size="12">ovR</text></g><g transform="translate(350,1060)"><svg width="140" height="60" viewBox="0 0 140 60"><rect width="34" height="12" x="8" y="24" fill="#111" rx="6"/><rect width="34" height="12" x="50" y="24" fill="#111" rx="6"/><circle cx="99" cy="30" r="7" fill="#111"/><circle cx="119" cy="30" r="7" fill="#111"/><text x="66" y="55" fill="#666" font-size="11" text-anchor="middle">2 ארוכות + 2 קצרות</text></svg><text x="0" y="76" font-family="Arial" font-size="12">ovL</text></g><g transform="translate(520,1060)"><svg width="140" height="60" viewBox="0 0 140 60"><rect width="34" height="12" x="8" y="24" fill="#111" rx="6"/><circle cx="57" cy="30" r="7" fill="#111"/><rect width="34" height="12" x="70" y="24" fill="#111" rx="6"/><circle cx="119" cy="30" r="7" fill="#111"/><text x="66" y="55" fill="#666" font-size="11" text-anchor="middle">ארוכה-קצרה-ארוכה-קצרה</text></svg><text x="0" y="76" font-family="Arial" font-size="12">agree</text></g><g transform="translate(690,1060)"><svg width="150" height="48.913" viewBox="0 0 184 60"><rect width="34" height="12" x="8" y="24" fill="#111" rx="6"/><rect width="34" height="12" x="50" y="24" fill="#111" rx="6"/><rect width="34" height="12" x="92" y="24" fill="#111" rx="6"/><rect width="34" height="12" x="134" y="24" fill="#111" rx="6"/><text x="88" y="55" fill="#666" font-size="11" text-anchor="middle">רצופה ללא הפסק</text></svg><text x="0" y="64.913" font-family="Arial" font-size="12">cont</text></g></svg>